<svg xmlns="http://www.w3.org/2000/svg" viewBox="0 0 240 240" width="240" height="240">
<circle cx="120" cy="120" r="119" fill="#0a0a12"/>
<circle cx="120" cy="120" r="116" fill="#1a1a2e"/>
<clipPath id="face"><circle cx="120" cy="120" r="116"/></clipPath>
<g clip-path="url(#face)">
<text x="120" y="52" font-family="Segoe UI, Roboto, Helvetica, Arial, sans-serif" font-size="12" font-weight="600" fill="#60a0ff" text-anchor="middle" dominant-baseline="central">DISPLAY</text>
<text x="120" y="76" font-family="Segoe UI, Roboto, Helvetica, Arial, sans-serif" font-size="12" font-weight="400" fill="#9ca3af" text-anchor="middle" dominant-baseline="central">Brightness: 100%</text>
<rect x="30" y="86" width="180" height="10" rx="5" fill="#16213e"/>
<rect x="30" y="86" width="180" height="10" rx="5" fill="#e94560"/>
<circle cx="205" cy="91" r="8" fill="#ffffff"/>
<text x="120" y="112" font-family="Segoe UI, Roboto, Helvetica, Arial, sans-serif" font-size="12" font-weight="400" fill="#9ca3af" text-anchor="middle" dominant-baseline="central">Invert menu rotation</text>
<rect x="98" y="122" width="44" height="24" rx="12" fill="#16213e"/>
<circle cx="110" cy="134" r="9" fill="#ffffff"/>
<text x="120" y="162" font-family="Segoe UI, Roboto, Helvetica, Arial, sans-serif" font-size="12" font-weight="400" fill="#9ca3af" text-anchor="middle" dominant-baseline="central">Sleep after</text>
<rect x="36" y="172" width="38" height="26" rx="13" fill="#16213e"/>
<text x="55" y="185" font-family="Segoe UI, Roboto, Helvetica, Arial, sans-serif" font-size="11" font-weight="600" fill="#9ca3af" text-anchor="middle" dominant-baseline="central">Never</text>
<rect x="78" y="172" width="38" height="26" rx="13" fill="#16213e"/>
<text x="97" y="185" font-family="Segoe UI, Roboto, Helvetica, Arial, sans-serif" font-size="11" font-weight="600" fill="#9ca3af" text-anchor="middle" dominant-baseline="central">3m</text>
<rect x="120" y="172" width="38" height="26" rx="13" fill="#e94560"/>
<text x="139" y="185" font-family="Segoe UI, Roboto, Helvetica, Arial, sans-serif" font-size="11" font-weight="600" fill="#ffffff" text-anchor="middle" dominant-baseline="central">5m</text>
<rect x="162" y="172" width="38" height="26" rx="13" fill="#16213e"/>
<text x="181" y="185" font-family="Segoe UI, Roboto, Helvetica, Arial, sans-serif" font-size="11" font-weight="600" fill="#9ca3af" text-anchor="middle" dominant-baseline="central">10m</text>
<circle cx="120" cy="214" r="18" fill="#0f3460"/>
<path d="M122.8 209.8 l-4.9 4.2 l4.9 4.2" stroke="#9ca3af" stroke-width="1.4" fill="none" stroke-linecap="round" stroke-linejoin="round"/>
</g></svg>